<svg width="20" height="20" viewBox="0 0 20 20" fill="none" xmlns="http://www.w3.org/2000/svg">
<path d="M18.3333 5.94922V14.2826C18.3333 14.8351 18.1138 15.365 17.7231 15.7557C17.3324 16.1464 16.8025 16.3659 16.25 16.3659H3.74999C3.19746 16.3659 2.66755 16.1464 2.27685 15.7557C1.88615 15.365 1.66666 14.8351 1.66666 14.2826V5.94922" stroke="white" stroke-width="1.4" stroke-linecap="round" stroke-linejoin="round"/>
<path d="M18.3333 5.94954C18.3333 5.39701 18.1138 4.86711 17.7231 4.47641C17.3324 4.0857 16.8025 3.86621 16.25 3.86621H3.74999C3.19746 3.86621 2.66755 4.0857 2.27685 4.47641C1.88615 4.86711 1.66666 5.39701 1.66666 5.94954L8.89582 10.4634C9.22693 10.6704 9.60953 10.7801 9.99999 10.7801C10.3904 10.7801 10.773 10.6704 11.1042 10.4634L18.3333 5.94954Z" stroke="white" stroke-width="1.4" stroke-linecap="round" stroke-linejoin="round"/>
</svg>
