<svg width="20" height="27" viewBox="0 0 20 27" fill="none" xmlns="http://www.w3.org/2000/svg">
<path d="M16.8608 15.3968C16.8608 21.0479 11.3516 24.5294 10.2068 25.1925C10.1433 25.2293 10.0721 25.2485 9.99964 25.2485C9.92721 25.2485 9.85596 25.2293 9.79254 25.1925C8.64679 24.5294 3.13931 21.0479 3.13931 15.3968C3.13931 10.8918 5.7121 7.73828 10.0001 7.73828C14.288 7.73828 16.8608 10.8918 16.8608 15.3968Z" stroke="white" stroke-width="1.4" stroke-linecap="round" stroke-linejoin="round"/>
<path d="M6.56973 14.9468C6.56973 15.9026 6.93115 16.8193 7.57447 17.4952C8.21779 18.1711 9.09032 18.5508 10.0001 18.5508C10.9099 18.5508 11.7824 18.1711 12.4258 17.4952C13.0691 16.8193 13.4305 15.9026 13.4305 14.9468C13.4305 13.9909 13.0691 13.0742 12.4258 12.3984C11.7824 11.7225 10.9099 11.3428 10.0001 11.3428C9.09032 11.3428 8.21779 11.7225 7.57447 12.3984C6.93115 13.0742 6.56973 13.9909 6.56973 14.9468V14.9468Z" stroke="white" stroke-width="1.4" stroke-linecap="round" stroke-linejoin="round"/>
</svg>
